<?xml version="1.0" encoding="utf-8"?>
<!-- Generator: Adobe Illustrator 26.0.1, SVG Export Plug-In . SVG Version: 6.00 Build 0)  -->
<svg version="1.1" id="Layer_1" xmlns="http://www.w3.org/2000/svg" xmlns:xlink="http://www.w3.org/1999/xlink" x="0px" y="0px"
	 viewBox="0 0 60 60" style="enable-background:new 0 0 60 60;" xml:space="preserve">
<style type="text/css">
	.st0{fill-rule:evenodd;clip-rule:evenodd;fill:#E71E25;}
	.st1{fill:#E71E25;}
</style>
<g>
	<path class="st0" d="M56.9,38c0,0.3-0.3,0.6-0.6,0.6H3.7c-0.3,0-0.6-0.3-0.6-0.6V22c0-0.3,0.3-0.6,0.6-0.6h52.7
		c0.3,0,0.6,0.3,0.6,0.6V38z M19.1,40.9h21.9c-2.9,2.9-6.8,4.6-10.9,4.6S21.9,43.7,19.1,40.9z M52,40.9c-4.1,8.4-12.6,13.7-22,13.7
		c-9.4,0-17.9-5.3-22-13.7h8c3.3,4.3,8.5,6.8,14,6.8s10.6-2.5,14-6.8H52z M40.9,19.1H19.1c2.9-2.9,6.8-4.6,10.9-4.6
		S38.1,16.3,40.9,19.1z M56.3,19.1h-1.8c-2-4.6-5.3-8.5-9.4-11.3C40.7,4.8,35.4,3.2,30,3.2c-5.4,0-10.7,1.6-15.1,4.7
		c-4.1,2.8-7.4,6.7-9.4,11.3H3.7c-1.6,0-2.9,1.3-2.9,2.9v16c0,1.6,1.3,2.9,2.9,2.9h1.8c2,4.6,5.3,8.5,9.4,11.3
		c4.5,3.1,9.7,4.7,15.1,4.7c5.4,0,10.7-1.6,15.1-4.7c4.1-2.8,7.4-6.7,9.4-11.3h1.8c1.6,0,2.9-1.3,2.9-2.9V22
		C59.2,20.4,57.9,19.1,56.3,19.1z M8,19.1c4.1-8.4,12.6-13.7,22-13.7c9.4,0,17.9,5.3,22,13.7h-8c-3.3-4.3-8.5-6.8-14-6.8
		s-10.6,2.5-14,6.8C13.4,19.1,10.7,19.1,8,19.1z"/>
	<path class="st1" d="M6.3,31.9l0.5-1.4h2.7l0.5,1.4H6.3z M4.8,32.9l2.5-5.8h1.9l2.5,5.8h-2L7.9,28h0.8l-1.9,4.9H4.8z"/>
	<path class="st1" d="M14.1,30.9L13.2,30h1.6c0.3,0,0.5-0.1,0.6-0.2c0.1-0.1,0.2-0.3,0.2-0.5c0-0.2-0.1-0.4-0.2-0.5
		c-0.1-0.1-0.3-0.2-0.6-0.2h-1.6l0.9-0.9V30.9z M12.1,32.9v-5.8h2.8c0.5,0,1,0.1,1.4,0.3c0.4,0.2,0.7,0.4,0.9,0.8
		c0.2,0.3,0.3,0.7,0.3,1.2c0,0.4-0.1,0.8-0.3,1.2c-0.2,0.3-0.5,0.6-0.9,0.8c-0.4,0.2-0.9,0.3-1.4,0.3h-1.7l0.9-0.8v2.3H12.1z"/>
	<path class="st1" d="M20.1,30.9L19.2,30h1.6c0.3,0,0.5-0.1,0.6-0.2c0.1-0.1,0.2-0.3,0.2-0.5c0-0.2-0.1-0.4-0.2-0.5
		c-0.1-0.1-0.3-0.2-0.6-0.2h-1.6l0.9-0.9V30.9z M18.2,32.9v-5.8h2.8c0.5,0,1,0.1,1.4,0.3c0.4,0.2,0.7,0.4,0.9,0.8
		c0.2,0.3,0.3,0.7,0.3,1.2c0,0.4-0.1,0.8-0.3,1.2c-0.2,0.3-0.5,0.6-0.9,0.8c-0.4,0.2-0.9,0.3-1.4,0.3h-1.7l0.9-0.8v2.3H18.2z"/>
	<path class="st1" d="M26.2,30.9L25.3,30h1.6c0.3,0,0.5-0.1,0.6-0.2c0.1-0.1,0.2-0.3,0.2-0.5c0-0.2-0.1-0.4-0.2-0.5
		c-0.1-0.1-0.3-0.2-0.6-0.2h-1.6l0.9-0.9V30.9z M27.7,32.9l-1.4-2.1h2.1l1.4,2.1H27.7z M24.2,32.9v-5.8H27c0.5,0,1,0.1,1.4,0.3
		c0.4,0.2,0.7,0.4,0.9,0.8c0.2,0.3,0.3,0.7,0.3,1.2c0,0.4-0.1,0.8-0.3,1.2c-0.2,0.3-0.5,0.6-0.9,0.7c-0.4,0.2-0.9,0.3-1.4,0.3h-1.7
		l0.9-0.8v2.3H24.2z"/>
	<path class="st1" d="M33.4,31.4c0.2,0,0.4,0,0.5-0.1c0.2-0.1,0.3-0.2,0.4-0.3c0.1-0.1,0.2-0.3,0.3-0.5c0.1-0.2,0.1-0.4,0.1-0.6
		c0-0.2,0-0.4-0.1-0.6c-0.1-0.2-0.2-0.3-0.3-0.5c-0.1-0.1-0.3-0.2-0.4-0.3c-0.2-0.1-0.3-0.1-0.5-0.1c-0.2,0-0.4,0-0.5,0.1
		c-0.2,0.1-0.3,0.2-0.4,0.3c-0.1,0.1-0.2,0.3-0.3,0.5c-0.1,0.2-0.1,0.4-0.1,0.6c0,0.2,0,0.4,0.1,0.6c0.1,0.2,0.2,0.3,0.3,0.5
		c0.1,0.1,0.3,0.2,0.4,0.3C33,31.4,33.2,31.4,33.4,31.4 M33.4,33c-0.5,0-0.9-0.1-1.3-0.2c-0.4-0.1-0.7-0.4-1-0.6
		c-0.3-0.3-0.5-0.6-0.7-1c-0.2-0.4-0.2-0.8-0.2-1.2c0-0.4,0.1-0.8,0.2-1.2c0.2-0.4,0.4-0.7,0.7-1c0.3-0.3,0.6-0.5,1-0.6
		c0.4-0.1,0.8-0.2,1.3-0.2c0.5,0,0.9,0.1,1.3,0.2c0.4,0.1,0.7,0.4,1,0.6c0.3,0.3,0.5,0.6,0.7,1c0.2,0.4,0.2,0.8,0.2,1.2
		c0,0.4-0.1,0.8-0.2,1.2c-0.2,0.4-0.4,0.7-0.7,1c-0.3,0.3-0.6,0.5-1,0.6C34.3,32.9,33.9,33,33.4,33z"/>
	<polygon class="st1" points="39,32.9 36.5,27.1 38.6,27.1 40.6,32 39.4,32 41.4,27.1 43.3,27.1 40.9,32.9 	"/>
	<path class="st1" d="M45.4,31.4h2.9v1.5h-4.8v-5.8h4.7v1.5h-2.8V31.4z M45.3,29.3h2.6v1.4h-2.6V29.3z"/>
	<path class="st1" d="M51,31.4h0.8c0.3,0,0.5-0.1,0.7-0.2c0.2-0.1,0.4-0.3,0.5-0.5c0.1-0.2,0.2-0.5,0.2-0.7c0-0.3-0.1-0.5-0.2-0.8
		c-0.1-0.2-0.3-0.4-0.5-0.5c-0.2-0.1-0.4-0.2-0.7-0.2H51V31.4z M49.1,32.9v-5.8h2.8c0.6,0,1.2,0.1,1.7,0.4c0.5,0.2,0.9,0.6,1.1,1
		c0.3,0.4,0.4,0.9,0.4,1.5c0,0.6-0.1,1.1-0.4,1.5c-0.3,0.4-0.7,0.8-1.1,1c-0.5,0.2-1.1,0.4-1.7,0.4H49.1z"/>
	<rect x="12.5" y="16.1" transform="matrix(0.6511 -0.759 0.759 0.6511 -8.6215 15.7468)" class="st1" width="0.6" height="2.3"/>
	<polygon class="st1" points="14.2,17.4 12.5,15.8 12.9,15.5 14.8,15.6 14.7,15.8 13.6,14.7 14,14.3 15.6,15.8 15.3,16.2 13.3,16.1 
		13.5,15.9 14.6,16.9 	"/>
	<path class="st1" d="M16.2,14.7l0.3-0.3c0.1-0.1,0.2-0.2,0.2-0.3c0-0.1,0.1-0.2,0-0.3c0-0.1-0.1-0.2-0.1-0.3
		c-0.1-0.1-0.2-0.2-0.3-0.2c-0.1,0-0.2-0.1-0.3,0c-0.1,0-0.2,0.1-0.3,0.2l-0.3,0.2L16.2,14.7z M16,15.5l-1.4-1.8l0.8-0.7
		c0.2-0.2,0.4-0.3,0.6-0.3c0.2,0,0.4,0,0.6,0c0.2,0.1,0.4,0.2,0.5,0.4c0.1,0.2,0.2,0.4,0.2,0.6c0,0.2,0,0.4-0.1,0.6
		c-0.1,0.2-0.2,0.4-0.4,0.5L16,15.5z"/>
	<rect x="17.5" y="11.7" transform="matrix(0.8391 -0.544 0.544 0.8391 -4.1117 11.7408)" class="st1" width="0.6" height="2.3"/>
	<path class="st1" d="M19.1,12.8L19,12.3l1-0.5l0.4,0.3L19.1,12.8z M18.8,13.4L18.7,11l0.6-0.3l1.9,1.5l-0.6,0.3L19,11.2l0.2-0.1
		l0.2,2.1L18.8,13.4z"/>
	<polygon class="st1" points="21.3,12.2 20.5,10.1 21,9.9 22.7,10.8 22.5,10.9 21.9,9.5 22.5,9.3 23.3,11.4 22.8,11.6 21.1,10.6 
		21.3,10.5 21.9,11.9 	"/>
	<path class="st1" d="M26,10.3l-0.2-0.8l0.6-0.1l0.2,0.9L26,10.3z M25.8,10.8c-0.2,0-0.3,0.1-0.5,0c-0.2,0-0.3-0.1-0.4-0.1
		c-0.1-0.1-0.2-0.2-0.3-0.3c-0.1-0.1-0.2-0.3-0.2-0.4c0-0.2,0-0.3,0-0.5c0-0.2,0.1-0.3,0.2-0.4c0.1-0.1,0.2-0.2,0.3-0.3
		c0.1-0.1,0.3-0.2,0.5-0.2c0.2,0,0.4-0.1,0.6,0c0.2,0,0.3,0.1,0.5,0.2L26,9.1C25.9,9.1,25.8,9,25.7,9c-0.1,0-0.2,0-0.3,0
		c-0.1,0-0.2,0.1-0.2,0.1c-0.1,0-0.1,0.1-0.2,0.2c0,0.1-0.1,0.1-0.1,0.2c0,0.1,0,0.2,0,0.3C24.9,9.9,25,10,25,10
		c0,0.1,0.1,0.1,0.2,0.2c0.1,0,0.1,0.1,0.2,0.1c0.1,0,0.2,0,0.3,0c0.1,0,0.2-0.1,0.3-0.1c0.1-0.1,0.2-0.1,0.2-0.2l0.5,0.4
		c-0.1,0.1-0.2,0.2-0.4,0.3C26.1,10.7,25.9,10.8,25.8,10.8z"/>
	<path class="st1" d="M28.2,9.9c0.1,0,0.2,0,0.2-0.1c0.1,0,0.1-0.1,0.2-0.1c0.1-0.1,0.1-0.1,0.1-0.2c0-0.1,0-0.2,0-0.3
		c0-0.1,0-0.2-0.1-0.3c0-0.1-0.1-0.1-0.1-0.2c-0.1-0.1-0.1-0.1-0.2-0.1c-0.1,0-0.2,0-0.2,0c-0.1,0-0.2,0-0.2,0.1
		c-0.1,0-0.1,0.1-0.2,0.1c-0.1,0.1-0.1,0.1-0.1,0.2c0,0.1,0,0.2,0,0.3c0,0.1,0,0.2,0.1,0.3c0,0.1,0.1,0.1,0.1,0.2
		c0.1,0.1,0.1,0.1,0.2,0.1C28,9.9,28.1,9.9,28.2,9.9 M28.2,10.4c-0.2,0-0.3,0-0.5,0c-0.2,0-0.3-0.1-0.4-0.2
		c-0.1-0.1-0.2-0.2-0.3-0.4c-0.1-0.1-0.1-0.3-0.1-0.5c0-0.2,0-0.3,0.1-0.5c0.1-0.1,0.1-0.3,0.2-0.4c0.1-0.1,0.2-0.2,0.4-0.3
		c0.2-0.1,0.3-0.1,0.5-0.1c0.2,0,0.4,0,0.5,0c0.2,0,0.3,0.1,0.4,0.2c0.1,0.1,0.2,0.2,0.3,0.4c0.1,0.1,0.1,0.3,0.1,0.5
		c0,0.2,0,0.3-0.1,0.5c-0.1,0.1-0.1,0.3-0.2,0.4c-0.1,0.1-0.2,0.2-0.4,0.3C28.6,10.4,28.4,10.4,28.2,10.4z"/>
	<polygon class="st1" points="30.4,10.4 29.5,8.1 30.2,8.1 31,10.1 30.6,10.1 31.4,8.1 32.1,8.1 31.1,10.4 	"/>
	<path class="st1" d="M32.8,10.1l1.2,0.2L34,10.7l-1.8-0.2l0.3-2.2l1.8,0.2l-0.1,0.5L33,8.8L32.8,10.1z M32.9,9.2l1,0.1l-0.1,0.5
		l-1-0.1L32.9,9.2z"/>
	<path class="st1" d="M35.2,10.2L35,9.8l0.6,0.2c0.1,0,0.2,0,0.3,0c0.1,0,0.1-0.1,0.2-0.2c0-0.1,0-0.2,0-0.3c0-0.1-0.1-0.1-0.3-0.2
		l-0.6-0.2L35.5,9L35.2,10.2z M35.7,11.2l-0.3-0.9l0.7,0.2l0.3,0.9L35.7,11.2z M34.3,10.8L35,8.6l1,0.3c0.2,0.1,0.4,0.1,0.5,0.2
		c0.1,0.1,0.2,0.2,0.3,0.4c0,0.1,0,0.3,0,0.5c0,0.2-0.1,0.3-0.2,0.4c-0.1,0.1-0.3,0.2-0.4,0.2c-0.2,0-0.3,0-0.5-0.1l-0.7-0.2
		l0.3-0.2l-0.2,0.8L34.3,10.8z"/>
	<polygon class="st1" points="36.6,11.4 37.4,9.3 37.9,9.5 38.5,11.3 38.3,11.3 38.9,9.8 39.5,10.1 38.6,12.2 38.1,12 37.5,10.1 
		37.8,10.2 37.2,11.6 	"/>
	<polygon class="st1" points="39.1,12.4 40.2,10.4 40.7,10.7 40.7,12.5 40.5,12.3 42,11.5 42.5,11.7 41.4,13.7 40.9,13.4 41.5,12.2 
		41.6,12.2 40.5,12.9 40.2,12.8 40.2,11.4 40.3,11.5 39.6,12.7 	"/>
	<path class="st1" d="M42.5,13.9l1,0.7L43.2,15l-1.5-1.1l1.3-1.8l1.4,1l-0.3,0.4l-0.9-0.7L42.5,13.9z M43,13.2l0.9,0.6l-0.3,0.4
		l-0.9-0.6L43,13.2z"/>
	<polygon class="st1" points="43.5,15.2 45,13.6 45.4,13.9 45.3,15.9 45.1,15.7 46.1,14.6 46.6,15.1 45,16.7 44.7,16.3 44.8,14.4 
		45,14.6 43.9,15.7 	"/>
	<polygon class="st1" points="45.7,17.4 47,16.2 46.5,15.7 46.9,15.4 48.3,16.9 47.9,17.2 47.4,16.7 46.1,17.9 	"/>
	<path class="st1" d="M39.1,50.4L39,49.7l1.5-0.7l0.5,0.5L39.1,50.4z M38.6,51.3l0-3.6l0.8-0.4l2.7,2.4l-0.9,0.4L39.1,48l0.3-0.2
		l0.1,3.1L38.6,51.3z M36.2,51.3c0.1,0,0.2-0.1,0.3-0.2c0.1-0.1,0.2-0.2,0.2-0.3c0.1-0.1,0.1-0.2,0.1-0.3c0-0.1,0-0.3,0-0.4
		c0-0.1-0.1-0.3-0.2-0.4c-0.1-0.1-0.2-0.2-0.3-0.2c-0.1-0.1-0.2-0.1-0.3-0.1c-0.1,0-0.2,0-0.4,0c-0.1,0-0.2,0.1-0.3,0.2
		c-0.1,0.1-0.2,0.2-0.2,0.2c-0.1,0.1-0.1,0.2-0.1,0.3c0,0.1,0,0.3,0,0.4c0,0.1,0.1,0.3,0.2,0.4c0.1,0.1,0.2,0.2,0.3,0.3
		c0.1,0.1,0.2,0.1,0.3,0.1C36,51.3,36.1,51.3,36.2,51.3z M36.4,52c-0.3,0.1-0.5,0.1-0.7,0c-0.2,0-0.5-0.1-0.7-0.2
		c-0.2-0.1-0.4-0.3-0.5-0.5c-0.1-0.2-0.2-0.4-0.3-0.6c-0.1-0.2-0.1-0.5,0-0.7c0-0.2,0.1-0.4,0.3-0.6c0.1-0.2,0.3-0.4,0.5-0.5
		c0.2-0.1,0.4-0.2,0.7-0.3c0.3-0.1,0.5-0.1,0.8,0c0.2,0,0.5,0.1,0.6,0.2c0.2,0.1,0.4,0.3,0.5,0.4c0.1,0.2,0.2,0.4,0.3,0.6
		c0.1,0.2,0.1,0.5,0,0.7c0,0.2-0.1,0.4-0.3,0.6c-0.1,0.2-0.3,0.3-0.5,0.5C36.9,51.9,36.6,52,36.4,52z M32,52.7l-0.2-2.6l-1,0.1
		l-0.1-0.7l3-0.2l0.1,0.7l-1,0.1l0.2,2.6L32,52.7z M28.7,52.8c-0.5,0-0.9-0.2-1.1-0.5c-0.3-0.3-0.4-0.7-0.3-1.2l0.1-1.8l0.9,0.1
		l-0.1,1.8c0,0.3,0,0.5,0.1,0.6c0.1,0.1,0.3,0.2,0.4,0.2c0.2,0,0.4,0,0.5-0.1c0.1-0.1,0.2-0.3,0.2-0.6l0.1-1.8l0.9,0.1l-0.1,1.8
		c0,0.5-0.2,0.9-0.5,1.1C29.5,52.7,29.2,52.8,28.7,52.8z M25.5,51l-1.4-0.3l0.2-0.8l1.4,0.3L25.5,51z M23.8,52l-0.9-0.2l0.7-3.2
		l0.9,0.2L23.8,52z M25.8,49l0.9,0.2L26,52.5l-0.9-0.2L25.8,49z M20.9,51.1l1.1-3.2l0.9,0.3l-1.1,3.2L20.9,51.1z M17.8,48.9l0.5-0.5
		l1.4,0.7l-0.1,0.7L17.8,48.9z M16.8,49.1l2.8-2.3l0.8,0.4l-0.2,3.6l-0.9-0.4l0.3-3.1l0.3,0.2l-2.3,2L16.8,49.1z"/>
</g>
</svg>
